<svg xmlns="http://www.w3.org/2000/svg" viewBox="0 0 256 256" role="img" aria-labelledby="wordmark-title wordmark-desc">
  <title id="wordmark-title">꼼꼼욕실 워드마크</title>
  <desc id="wordmark-desc">꼼꼼과 욕실을 두 줄로 쌓은 짙은 파란색 프로필 워드마크</desc>

  <g transform="translate(128 128) scale(1.1) translate(-128 -128)">
  <g fill="#0B4F7B" transform="translate(0 -4)">
    <path d="M90.332 49.254H112.176V60.09H90.332ZM53.868 81.16H126.452V92.168H53.868ZM84.57 68.862H98.244V86.32H84.57ZM106.586 49.254H120.088V55.102Q120.088 59.66 119.744 65.293Q119.4 70.926 117.422 77.892L104.006 76.516Q105.984 69.636 106.285 64.562Q106.586 59.488 106.586 55.102ZM59.286 49.254H77.518V60.09H59.286ZM71.24 49.254H84.656V53.21Q84.656 57.252 84.097 63.573Q83.538 69.894 80.27 77.978L66.94 76.172Q69.09 70.582 69.993 66.325Q70.896 62.068 71.068 58.843Q71.24 55.618 71.24 53.21ZM62.382 97.242H117.508V126.396H62.382ZM103.834 107.992H75.97V115.56H103.834ZM166.012 49.254H187.856V60.09H166.012ZM129.548 81.16H202.132V92.168H129.548ZM160.25 68.862H173.924V86.32H160.25ZM182.266 49.254H195.768V55.102Q195.768 59.66 195.424 65.293Q195.08 70.926 193.102 77.892L179.686 76.516Q181.664 69.636 181.965 64.562Q182.266 59.488 182.266 55.102ZM134.966 49.254H153.198V60.09H134.966ZM146.92 49.254H160.336V53.21Q160.336 57.252 159.777 63.573Q159.218 69.894 155.95 77.978L142.62 76.172Q144.77 70.582 145.673 66.325Q146.576 62.068 146.748 58.843Q146.92 55.618 146.92 53.21ZM138.062 97.242H193.188V126.396H138.062ZM179.514 107.992H151.65V115.56H179.514Z"/>
  </g>

  <path fill="#093B5C" d="M69.176 155.42H83.022V170.04H69.176ZM96.868 155.42H110.714V170.04H96.868ZM90.155 129.706Q99.19 129.706 105.855 131.641Q112.52 133.576 116.175 137.145Q119.83 140.714 119.83 145.659Q119.83 150.604 116.191 154.219Q112.551 157.835 105.871 159.766Q99.19 161.698 90.155 161.698Q81.216 161.698 74.49 159.766Q67.764 157.835 64.127 154.219Q60.49 150.604 60.49 145.659Q60.49 140.714 64.145 137.145Q67.8 133.576 74.508 131.641Q81.216 129.706 90.155 129.706ZM90.203 140.284Q85.172 140.284 81.732 140.843Q78.292 141.402 76.572 142.563Q74.852 143.724 74.852 145.683Q74.852 147.594 76.572 148.798Q78.292 150.002 81.732 150.561Q85.172 151.12 90.203 151.12Q95.234 151.12 98.631 150.561Q102.028 150.002 103.748 148.798Q105.468 147.594 105.468 145.683Q105.468 143.724 103.748 142.563Q102.028 141.402 98.631 140.843Q95.234 140.284 90.203 140.284ZM53.61 167.288H126.624V178.21H53.61ZM61.694 182.596H117.938V209.17H104.092V193.432H61.694ZM182.954 128.502H196.886V168.664H182.954ZM142.19 171.932H196.886V195.152H155.95V201.688H142.276V185.348H183.126V182.424H142.19ZM142.276 198.162H198.52V208.826H142.276ZM147.092 130.05H158.53V136.07Q158.53 143.466 156.208 150.26Q153.886 157.054 148.726 162.128Q143.566 167.202 135.052 169.61L128.43 158.688Q133.762 157.14 137.374 154.689Q140.986 152.238 143.136 149.185Q145.286 146.132 146.189 142.778Q147.092 139.424 147.092 136.07ZM150.016 130.05H161.282V136.07Q161.282 139.338 162.185 142.563Q163.088 145.788 165.109 148.669Q167.13 151.55 170.613 153.829Q174.096 156.108 179.256 157.484L172.634 168.234Q166.442 166.514 162.142 163.375Q157.842 160.236 155.133 155.936Q152.424 151.636 151.22 146.605Q150.016 141.574 150.016 136.07Z"/>
  </g>
</svg>
