<svg xmlns="http://www.w3.org/2000/svg" viewBox="0 0 64 64" role="img" aria-label="꼼꼼욕실">
  <circle cx="32" cy="32" r="29" fill="#fff" stroke="#0B4F7B" stroke-width="3"/>
  <g fill="#fff" stroke="#0B4F7B" stroke-width="2.8" stroke-linecap="round" stroke-linejoin="round">
    <path d="M16 29h32c2 0 3 1 2 3l-1 2H15l-1-2c-1-2 0-3 2-3Z"/>
    <path d="M17 34c2 5 6 8 12 8l-3 8c5 2 11 2 16 0l-2-8h6c3-2 5-4 6-8"/>
    <path d="M30 20c1-4 4-6 8-6h2c4 0 7 3 7 7v8"/>
    <path d="M28 24c1-4 4-6 8-6s7 2 8 6H28Z"/>
    <path d="M21 15l2 3 4 2-4 2-2 3-2-3-4-2 4-2 2-3Z"/>
  </g>
  <g fill="none" stroke="#0B4F7B" stroke-width="2.8" stroke-linecap="round">
    <path d="M32 27v1"/><path d="M38 27v1"/>
  </g>
</svg>
