<svg xmlns="http://www.w3.org/2000/svg" viewBox="0 0 64 64" role="img" aria-label="꼼꼼욕실">
  <circle cx="32" cy="32" r="29" fill="#093B5C" stroke="#F7F3ED" stroke-width="3"/>

  <path
    d="M46 30v-6c0-6-4-10-10-10h-1c-5 0-10 3-12 8l-1 3h11c4 0 8 3 8 7"
    fill="none"
    stroke="#F7F3ED"
    stroke-width="2.3"
    stroke-linecap="round"
    stroke-linejoin="round"
  />

  <g fill="#093B5C" stroke="#F7F3ED" stroke-width="3" stroke-linecap="round" stroke-linejoin="round">
    <path d="M15 30h34c2 0 3 2 2 4l-2 2H15l-2-2c-1-2 0-4 2-4Z"/>
    <path d="M16 36c2 6 6 9 12 10l-2 7h12l-2-7c6-1 10-4 12-10H16Z"/>
  </g>

  <path d="M20 13c1 3 3 5 6 6-3 1-5 3-6 6-1-3-3-5-6-6 3-1 5-3 6-6Z" fill="#F7F3ED"/>
</svg>
