<svg xmlns="http://www.w3.org/2000/svg" viewBox="0 0 256 256" role="img" aria-labelledby="title desc">
  <title id="title">꼼꼼욕실 로고</title>
  <desc id="desc">정원 안에 반짝이는 깨끗한 세면대와 수전이 있는 파란색 심볼</desc>
  <circle cx="128" cy="128" r="111" fill="#fff" stroke="#0B4F7B" stroke-width="8"/>
  <g fill="#fff" stroke="#0B4F7B" stroke-width="8" stroke-linecap="round" stroke-linejoin="round">
    <path d="M63 112h130c7 0 10 5 7 11l-5 9H61l-5-9c-3-6 0-11 7-11Z"/>
    <path d="M67 132c5 19 19 30 44 32l-12 32c18 5 39 6 58 1l-8-33h23c12-6 19-17 22-32"/>
    <path d="M119 75c3-12 13-20 27-20h10c14 0 25 10 25 24v33"/>
    <path d="M110 91c3-13 13-21 27-21s24 8 27 21h-54Z"/>
    <path d="M83 58l6 10 11 5-11 5-6 10-6-10-11-5 11-5 6-10Z"/>
  </g>
  <g fill="none" stroke="#0B4F7B" stroke-width="8" stroke-linecap="round">
    <path d="M123 102v6"/>
    <path d="M145 102v6"/>
  </g>
</svg>

